# xmcd CD database file
#
# Track frame offsets:
#	150
#	19393
#	46317
#	80063
#	102066
#	130864
#	153826
#	173697
#	194250
#	217171
#	247691
#	271273
#	296587
#	330122
#
# Disc length: 4691 seconds
#
# Revision: 2
# Processed by: cddbd v1.5.2PL0 Copyright (c) Steve Scherf et al.
# Submitted via: CDex 1.70beta2
#
DISCID=b812510e
DTITLE=Rasmus Faber - Where We Belong - RaFa’s Epic Journey
DYEAR=2009
DGENRE=Jazz
TTITLE0=Give It To Me [RaFa's Smooth Mix]
TTITLE1=Always [Remix]
TTITLE2=Cidade Oposta [Remix and Dub Mixdown]
TTITLE3=Any Way [Remix]
TTITLE4=Everytime We [RaFa’s Smooth Mix]
TTITLE5=Everything Is Alright [Club Mix]
TTITLE6=Traveller Toccata [Remix]
TTITLE7=Are You Ready [Club Mix]
TTITLE8=No More Falling [RaFa’s Epic Dub]
TTITLE9=Never Figure Out [Dub Mix]
TTITLE10=I Don’t Mind [Remix]
TTITLE11=Na Minha Terra [RaFa’s Dub Mix]
TTITLE12=Yes [Remix]
TTITLE13=Where We Belong [RaFa’s Epic Reprise]
EXTD=YEAR: 2009
EXTT0=
EXTT1=
EXTT2=
EXTT3=
EXTT4=
EXTT5=
EXTT6=
EXTT7=
EXTT8=
EXTT9=
EXTT10=
EXTT11=
EXTT12=
EXTT13=
PLAYORDER=
